<svg xmlns="http://www.w3.org/2000/svg" xmlns:xlink="http://www.w3.org/1999/xlink" width="2000" zoomAndPan="magnify" viewBox="0 0 1500 1499.999933" height="2000" preserveAspectRatio="xMidYMid meet" version="1.0"><defs><clipPath id="aa95a9f134"><path d="M 660 327 L 890.730469 327 L 890.730469 1185.78125 L 660 1185.78125 Z M 660 327 " clip-rule="nonzero"/></clipPath><clipPath id="00fabc9669"><path d="M 884.136719 644 C 882.886719 596.078125 882.492188 548.15625 876.820312 500.367188 C 875.042969 484.414062 873.128906 468.394531 870.296875 452.507812 C 868.382812 443.414062 867.460938 433.988281 863.703125 425.152344 C 862.515625 417.113281 857.308594 409.332031 851.707031 402.675781 C 843.53125 392.917969 834.964844 383.425781 825.933594 374.132812 C 812.289062 360.488281 798.90625 346.449219 782.890625 334.449219 C 761.53125 315.929688 736.878906 340.449219 723.035156 353.371094 C 709.589844 366.488281 695.679688 379.472656 685.398438 394.304688 C 675.640625 407.355469 669.445312 422.054688 669.511719 437.152344 C 669.246094 438.601562 669.050781 439.789062 668.984375 440.378906 C 668.058594 445.785156 667.53125 451.191406 667.136719 456.660156 C 666.414062 463.054688 665.820312 469.515625 665.160156 475.910156 C 660.875 519.351562 659.492188 563.054688 657.84375 607.019531 C 655.007812 670.234375 652.769531 733.515625 652.175781 796.796875 C 651.054688 903.054688 649.273438 1009.378906 647.230469 1115.574219 C 647.558594 1127.4375 647.429688 1139.898438 652.898438 1150.839844 C 656.394531 1158.089844 662.390625 1164.417969 669.640625 1168.769531 C 670.367188 1169.492188 671.09375 1170.285156 671.882812 1170.945312 C 684.144531 1181.359375 703.261719 1182.613281 720.203125 1184.257812 C 752.238281 1186.832031 784.800781 1185.90625 816.769531 1183.203125 C 842.542969 1181.292969 865.285156 1166.988281 874.449219 1148.335938 C 878.335938 1140.753906 879.855469 1132.644531 880.445312 1124.539062 C 884.074219 1109.3125 883.875 1093.625 884.203125 1078.199219 C 884.402344 1063.300781 884.664062 1048.402344 884.730469 1033.574219 C 884.929688 966.335938 889.808594 899.167969 890.597656 831.929688 C 890.335938 769.308594 886.578125 706.6875 884.136719 644.066406 Z M 884.136719 644 " clip-rule="nonzero"/></clipPath><clipPath id="a7c7969e0b"><path d="M 647 424 L 746 424 L 746 1175 L 647 1175 Z M 647 424 " clip-rule="nonzero"/></clipPath><clipPath id="65ade12ceb"><path d="M 884.136719 644 C 882.886719 596.078125 882.492188 548.15625 876.820312 500.367188 C 875.042969 484.414062 873.128906 468.394531 870.296875 452.507812 C 868.382812 443.414062 867.460938 433.988281 863.703125 425.152344 C 862.515625 417.113281 857.308594 409.332031 851.707031 402.675781 C 843.53125 392.917969 834.964844 383.425781 825.933594 374.132812 C 812.289062 360.488281 798.90625 346.449219 782.890625 334.449219 C 761.53125 315.929688 736.878906 340.449219 723.035156 353.371094 C 709.589844 366.488281 695.679688 379.472656 685.398438 394.304688 C 675.640625 407.355469 669.445312 422.054688 669.511719 437.152344 C 669.246094 438.601562 669.050781 439.789062 668.984375 440.378906 C 668.058594 445.785156 667.53125 451.191406 667.136719 456.660156 C 666.414062 463.054688 665.820312 469.515625 665.160156 475.910156 C 660.875 519.351562 659.492188 563.054688 657.84375 607.019531 C 655.007812 670.234375 652.769531 733.515625 652.175781 796.796875 C 651.054688 903.054688 649.273438 1009.378906 647.230469 1115.574219 C 647.558594 1127.4375 647.429688 1139.898438 652.898438 1150.839844 C 656.394531 1158.089844 662.390625 1164.417969 669.640625 1168.769531 C 670.367188 1169.492188 671.09375 1170.285156 671.882812 1170.945312 C 684.144531 1181.359375 703.261719 1182.613281 720.203125 1184.257812 C 752.238281 1186.832031 784.800781 1185.90625 816.769531 1183.203125 C 842.542969 1181.292969 865.285156 1166.988281 874.449219 1148.335938 C 878.335938 1140.753906 879.855469 1132.644531 880.445312 1124.539062 C 884.074219 1109.3125 883.875 1093.625 884.203125 1078.199219 C 884.402344 1063.300781 884.664062 1048.402344 884.730469 1033.574219 C 884.929688 966.335938 889.808594 899.167969 890.597656 831.929688 C 890.335938 769.308594 886.578125 706.6875 884.136719 644.066406 Z M 884.136719 644 " clip-rule="nonzero"/></clipPath><clipPath id="cc106ac94e"><path d="M 719 405 L 739 405 L 739 1185.78125 L 719 1185.78125 Z M 719 405 " clip-rule="nonzero"/></clipPath><clipPath id="982cdc0392"><path d="M 884.136719 644 C 882.886719 596.078125 882.492188 548.15625 876.820312 500.367188 C 875.042969 484.414062 873.128906 468.394531 870.296875 452.507812 C 868.382812 443.414062 867.460938 433.988281 863.703125 425.152344 C 862.515625 417.113281 857.308594 409.332031 851.707031 402.675781 C 843.53125 392.917969 834.964844 383.425781 825.933594 374.132812 C 812.289062 360.488281 798.90625 346.449219 782.890625 334.449219 C 761.53125 315.929688 736.878906 340.449219 723.035156 353.371094 C 709.589844 366.488281 695.679688 379.472656 685.398438 394.304688 C 675.640625 407.355469 669.445312 422.054688 669.511719 437.152344 C 669.246094 438.601562 669.050781 439.789062 668.984375 440.378906 C 668.058594 445.785156 667.53125 451.191406 667.136719 456.660156 C 666.414062 463.054688 665.820312 469.515625 665.160156 475.910156 C 660.875 519.351562 659.492188 563.054688 657.84375 607.019531 C 655.007812 670.234375 652.769531 733.515625 652.175781 796.796875 C 651.054688 903.054688 649.273438 1009.378906 647.230469 1115.574219 C 647.558594 1127.4375 647.429688 1139.898438 652.898438 1150.839844 C 656.394531 1158.089844 662.390625 1164.417969 669.640625 1168.769531 C 670.367188 1169.492188 671.09375 1170.285156 671.882812 1170.945312 C 684.144531 1181.359375 703.261719 1182.613281 720.203125 1184.257812 C 752.238281 1186.832031 784.800781 1185.90625 816.769531 1183.203125 C 842.542969 1181.292969 865.285156 1166.988281 874.449219 1148.335938 C 878.335938 1140.753906 879.855469 1132.644531 880.445312 1124.539062 C 884.074219 1109.3125 883.875 1093.625 884.203125 1078.199219 C 884.402344 1063.300781 884.664062 1048.402344 884.730469 1033.574219 C 884.929688 966.335938 889.808594 899.167969 890.597656 831.929688 C 890.335938 769.308594 886.578125 706.6875 884.136719 644.066406 Z M 884.136719 644 " clip-rule="nonzero"/></clipPath><clipPath id="23df0d41b4"><path d="M 803 390 L 820 390 L 820 1185.78125 L 803 1185.78125 Z M 803 390 " clip-rule="nonzero"/></clipPath><clipPath id="199a12ce4e"><path d="M 884.136719 644 C 882.886719 596.078125 882.492188 548.15625 876.820312 500.367188 C 875.042969 484.414062 873.128906 468.394531 870.296875 452.507812 C 868.382812 443.414062 867.460938 433.988281 863.703125 425.152344 C 862.515625 417.113281 857.308594 409.332031 851.707031 402.675781 C 843.53125 392.917969 834.964844 383.425781 825.933594 374.132812 C 812.289062 360.488281 798.90625 346.449219 782.890625 334.449219 C 761.53125 315.929688 736.878906 340.449219 723.035156 353.371094 C 709.589844 366.488281 695.679688 379.472656 685.398438 394.304688 C 675.640625 407.355469 669.445312 422.054688 669.511719 437.152344 C 669.246094 438.601562 669.050781 439.789062 668.984375 440.378906 C 668.058594 445.785156 667.53125 451.191406 667.136719 456.660156 C 666.414062 463.054688 665.820312 469.515625 665.160156 475.910156 C 660.875 519.351562 659.492188 563.054688 657.84375 607.019531 C 655.007812 670.234375 652.769531 733.515625 652.175781 796.796875 C 651.054688 903.054688 649.273438 1009.378906 647.230469 1115.574219 C 647.558594 1127.4375 647.429688 1139.898438 652.898438 1150.839844 C 656.394531 1158.089844 662.390625 1164.417969 669.640625 1168.769531 C 670.367188 1169.492188 671.09375 1170.285156 671.882812 1170.945312 C 684.144531 1181.359375 703.261719 1182.613281 720.203125 1184.257812 C 752.238281 1186.832031 784.800781 1185.90625 816.769531 1183.203125 C 842.542969 1181.292969 865.285156 1166.988281 874.449219 1148.335938 C 878.335938 1140.753906 879.855469 1132.644531 880.445312 1124.539062 C 884.074219 1109.3125 883.875 1093.625 884.203125 1078.199219 C 884.402344 1063.300781 884.664062 1048.402344 884.730469 1033.574219 C 884.929688 966.335938 889.808594 899.167969 890.597656 831.929688 C 890.335938 769.308594 886.578125 706.6875 884.136719 644.066406 Z M 884.136719 644 " clip-rule="nonzero"/></clipPath><clipPath id="2520e5dd19"><path d="M 647 1103 L 890.730469 1103 L 890.730469 1185.78125 L 647 1185.78125 Z M 647 1103 " clip-rule="nonzero"/></clipPath><clipPath id="841b851a39"><path d="M 884.136719 644 C 882.886719 596.078125 882.492188 548.15625 876.820312 500.367188 C 875.042969 484.414062 873.128906 468.394531 870.296875 452.507812 C 868.382812 443.414062 867.460938 433.988281 863.703125 425.152344 C 862.515625 417.113281 857.308594 409.332031 851.707031 402.675781 C 843.53125 392.917969 834.964844 383.425781 825.933594 374.132812 C 812.289062 360.488281 798.90625 346.449219 782.890625 334.449219 C 761.53125 315.929688 736.878906 340.449219 723.035156 353.371094 C 709.589844 366.488281 695.679688 379.472656 685.398438 394.304688 C 675.640625 407.355469 669.445312 422.054688 669.511719 437.152344 C 669.246094 438.601562 669.050781 439.789062 668.984375 440.378906 C 668.058594 445.785156 667.53125 451.191406 667.136719 456.660156 C 666.414062 463.054688 665.820312 469.515625 665.160156 475.910156 C 660.875 519.351562 659.492188 563.054688 657.84375 607.019531 C 655.007812 670.234375 652.769531 733.515625 652.175781 796.796875 C 651.054688 903.054688 649.273438 1009.378906 647.230469 1115.574219 C 647.558594 1127.4375 647.429688 1139.898438 652.898438 1150.839844 C 656.394531 1158.089844 662.390625 1164.417969 669.640625 1168.769531 C 670.367188 1169.492188 671.09375 1170.285156 671.882812 1170.945312 C 684.144531 1181.359375 703.261719 1182.613281 720.203125 1184.257812 C 752.238281 1186.832031 784.800781 1185.90625 816.769531 1183.203125 C 842.542969 1181.292969 865.285156 1166.988281 874.449219 1148.335938 C 878.335938 1140.753906 879.855469 1132.644531 880.445312 1124.539062 C 884.074219 1109.3125 883.875 1093.625 884.203125 1078.199219 C 884.402344 1063.300781 884.664062 1048.402344 884.730469 1033.574219 C 884.929688 966.335938 889.808594 899.167969 890.597656 831.929688 C 890.335938 769.308594 886.578125 706.6875 884.136719 644.066406 Z M 884.136719 644 " clip-rule="nonzero"/></clipPath><clipPath id="9722af37da"><path d="M 876 1100 L 887 1100 L 887 1108 L 876 1108 Z M 876 1100 " clip-rule="nonzero"/></clipPath><clipPath id="00cd9ec4db"><path d="M 884.136719 644 C 882.886719 596.078125 882.492188 548.15625 876.820312 500.367188 C 875.042969 484.414062 873.128906 468.394531 870.296875 452.507812 C 868.382812 443.414062 867.460938 433.988281 863.703125 425.152344 C 862.515625 417.113281 857.308594 409.332031 851.707031 402.675781 C 843.53125 392.917969 834.964844 383.425781 825.933594 374.132812 C 812.289062 360.488281 798.90625 346.449219 782.890625 334.449219 C 761.53125 315.929688 736.878906 340.449219 723.035156 353.371094 C 709.589844 366.488281 695.679688 379.472656 685.398438 394.304688 C 675.640625 407.355469 669.445312 422.054688 669.511719 437.152344 C 669.246094 438.601562 669.050781 439.789062 668.984375 440.378906 C 668.058594 445.785156 667.53125 451.191406 667.136719 456.660156 C 666.414062 463.054688 665.820312 469.515625 665.160156 475.910156 C 660.875 519.351562 659.492188 563.054688 657.84375 607.019531 C 655.007812 670.234375 652.769531 733.515625 652.175781 796.796875 C 651.054688 903.054688 649.273438 1009.378906 647.230469 1115.574219 C 647.558594 1127.4375 647.429688 1139.898438 652.898438 1150.839844 C 656.394531 1158.089844 662.390625 1164.417969 669.640625 1168.769531 C 670.367188 1169.492188 671.09375 1170.285156 671.882812 1170.945312 C 684.144531 1181.359375 703.261719 1182.613281 720.203125 1184.257812 C 752.238281 1186.832031 784.800781 1185.90625 816.769531 1183.203125 C 842.542969 1181.292969 865.285156 1166.988281 874.449219 1148.335938 C 878.335938 1140.753906 879.855469 1132.644531 880.445312 1124.539062 C 884.074219 1109.3125 883.875 1093.625 884.203125 1078.199219 C 884.402344 1063.300781 884.664062 1048.402344 884.730469 1033.574219 C 884.929688 966.335938 889.808594 899.167969 890.597656 831.929688 C 890.335938 769.308594 886.578125 706.6875 884.136719 644.066406 Z M 884.136719 644 " clip-rule="nonzero"/></clipPath><clipPath id="9e7dbd25e7"><path d="M 880 1105 L 887 1105 L 887 1109 L 880 1109 Z M 880 1105 " clip-rule="nonzero"/></clipPath><clipPath id="7db5bb5bbe"><path d="M 884.136719 644 C 882.886719 596.078125 882.492188 548.15625 876.820312 500.367188 C 875.042969 484.414062 873.128906 468.394531 870.296875 452.507812 C 868.382812 443.414062 867.460938 433.988281 863.703125 425.152344 C 862.515625 417.113281 857.308594 409.332031 851.707031 402.675781 C 843.53125 392.917969 834.964844 383.425781 825.933594 374.132812 C 812.289062 360.488281 798.90625 346.449219 782.890625 334.449219 C 761.53125 315.929688 736.878906 340.449219 723.035156 353.371094 C 709.589844 366.488281 695.679688 379.472656 685.398438 394.304688 C 675.640625 407.355469 669.445312 422.054688 669.511719 437.152344 C 669.246094 438.601562 669.050781 439.789062 668.984375 440.378906 C 668.058594 445.785156 667.53125 451.191406 667.136719 456.660156 C 666.414062 463.054688 665.820312 469.515625 665.160156 475.910156 C 660.875 519.351562 659.492188 563.054688 657.84375 607.019531 C 655.007812 670.234375 652.769531 733.515625 652.175781 796.796875 C 651.054688 903.054688 649.273438 1009.378906 647.230469 1115.574219 C 647.558594 1127.4375 647.429688 1139.898438 652.898438 1150.839844 C 656.394531 1158.089844 662.390625 1164.417969 669.640625 1168.769531 C 670.367188 1169.492188 671.09375 1170.285156 671.882812 1170.945312 C 684.144531 1181.359375 703.261719 1182.613281 720.203125 1184.257812 C 752.238281 1186.832031 784.800781 1185.90625 816.769531 1183.203125 C 842.542969 1181.292969 865.285156 1166.988281 874.449219 1148.335938 C 878.335938 1140.753906 879.855469 1132.644531 880.445312 1124.539062 C 884.074219 1109.3125 883.875 1093.625 884.203125 1078.199219 C 884.402344 1063.300781 884.664062 1048.402344 884.730469 1033.574219 C 884.929688 966.335938 889.808594 899.167969 890.597656 831.929688 C 890.335938 769.308594 886.578125 706.6875 884.136719 644.066406 Z M 884.136719 644 " clip-rule="nonzero"/></clipPath><clipPath id="163c27eb29"><path d="M 647 1086 L 890.730469 1086 L 890.730469 1131 L 647 1131 Z M 647 1086 " clip-rule="nonzero"/></clipPath><clipPath id="80cfc7d47c"><path d="M 884.136719 644 C 882.886719 596.078125 882.492188 548.15625 876.820312 500.367188 C 875.042969 484.414062 873.128906 468.394531 870.296875 452.507812 C 868.382812 443.414062 867.460938 433.988281 863.703125 425.152344 C 862.515625 417.113281 857.308594 409.332031 851.707031 402.675781 C 843.53125 392.917969 834.964844 383.425781 825.933594 374.132812 C 812.289062 360.488281 798.90625 346.449219 782.890625 334.449219 C 761.53125 315.929688 736.878906 340.449219 723.035156 353.371094 C 709.589844 366.488281 695.679688 379.472656 685.398438 394.304688 C 675.640625 407.355469 669.445312 422.054688 669.511719 437.152344 C 669.246094 438.601562 669.050781 439.789062 668.984375 440.378906 C 668.058594 445.785156 667.53125 451.191406 667.136719 456.660156 C 666.414062 463.054688 665.820312 469.515625 665.160156 475.910156 C 660.875 519.351562 659.492188 563.054688 657.84375 607.019531 C 655.007812 670.234375 652.769531 733.515625 652.175781 796.796875 C 651.054688 903.054688 649.273438 1009.378906 647.230469 1115.574219 C 647.558594 1127.4375 647.429688 1139.898438 652.898438 1150.839844 C 656.394531 1158.089844 662.390625 1164.417969 669.640625 1168.769531 C 670.367188 1169.492188 671.09375 1170.285156 671.882812 1170.945312 C 684.144531 1181.359375 703.261719 1182.613281 720.203125 1184.257812 C 752.238281 1186.832031 784.800781 1185.90625 816.769531 1183.203125 C 842.542969 1181.292969 865.285156 1166.988281 874.449219 1148.335938 C 878.335938 1140.753906 879.855469 1132.644531 880.445312 1124.539062 C 884.074219 1109.3125 883.875 1093.625 884.203125 1078.199219 C 884.402344 1063.300781 884.664062 1048.402344 884.730469 1033.574219 C 884.929688 966.335938 889.808594 899.167969 890.597656 831.929688 C 890.335938 769.308594 886.578125 706.6875 884.136719 644.066406 Z M 884.136719 644 " clip-rule="nonzero"/></clipPath><clipPath id="af1643b7d6"><path d="M 647 1072 L 890.730469 1072 L 890.730469 1123 L 647 1123 Z M 647 1072 " clip-rule="nonzero"/></clipPath><clipPath id="1e5526efea"><path d="M 884.136719 644 C 882.886719 596.078125 882.492188 548.15625 876.820312 500.367188 C 875.042969 484.414062 873.128906 468.394531 870.296875 452.507812 C 868.382812 443.414062 867.460938 433.988281 863.703125 425.152344 C 862.515625 417.113281 857.308594 409.332031 851.707031 402.675781 C 843.53125 392.917969 834.964844 383.425781 825.933594 374.132812 C 812.289062 360.488281 798.90625 346.449219 782.890625 334.449219 C 761.53125 315.929688 736.878906 340.449219 723.035156 353.371094 C 709.589844 366.488281 695.679688 379.472656 685.398438 394.304688 C 675.640625 407.355469 669.445312 422.054688 669.511719 437.152344 C 669.246094 438.601562 669.050781 439.789062 668.984375 440.378906 C 668.058594 445.785156 667.53125 451.191406 667.136719 456.660156 C 666.414062 463.054688 665.820312 469.515625 665.160156 475.910156 C 660.875 519.351562 659.492188 563.054688 657.84375 607.019531 C 655.007812 670.234375 652.769531 733.515625 652.175781 796.796875 C 651.054688 903.054688 649.273438 1009.378906 647.230469 1115.574219 C 647.558594 1127.4375 647.429688 1139.898438 652.898438 1150.839844 C 656.394531 1158.089844 662.390625 1164.417969 669.640625 1168.769531 C 670.367188 1169.492188 671.09375 1170.285156 671.882812 1170.945312 C 684.144531 1181.359375 703.261719 1182.613281 720.203125 1184.257812 C 752.238281 1186.832031 784.800781 1185.90625 816.769531 1183.203125 C 842.542969 1181.292969 865.285156 1166.988281 874.449219 1148.335938 C 878.335938 1140.753906 879.855469 1132.644531 880.445312 1124.539062 C 884.074219 1109.3125 883.875 1093.625 884.203125 1078.199219 C 884.402344 1063.300781 884.664062 1048.402344 884.730469 1033.574219 C 884.929688 966.335938 889.808594 899.167969 890.597656 831.929688 C 890.335938 769.308594 886.578125 706.6875 884.136719 644.066406 Z M 884.136719 644 " clip-rule="nonzero"/></clipPath><clipPath id="0024ecfda8"><path d="M 647 1103 L 725 1103 L 725 1185.78125 L 647 1185.78125 Z M 647 1103 " clip-rule="nonzero"/></clipPath><clipPath id="82d373daa9"><path d="M 884.136719 644 C 882.886719 596.078125 882.492188 548.15625 876.820312 500.367188 C 875.042969 484.414062 873.128906 468.394531 870.296875 452.507812 C 868.382812 443.414062 867.460938 433.988281 863.703125 425.152344 C 862.515625 417.113281 857.308594 409.332031 851.707031 402.675781 C 843.53125 392.917969 834.964844 383.425781 825.933594 374.132812 C 812.289062 360.488281 798.90625 346.449219 782.890625 334.449219 C 761.53125 315.929688 736.878906 340.449219 723.035156 353.371094 C 709.589844 366.488281 695.679688 379.472656 685.398438 394.304688 C 675.640625 407.355469 669.445312 422.054688 669.511719 437.152344 C 669.246094 438.601562 669.050781 439.789062 668.984375 440.378906 C 668.058594 445.785156 667.53125 451.191406 667.136719 456.660156 C 666.414062 463.054688 665.820312 469.515625 665.160156 475.910156 C 660.875 519.351562 659.492188 563.054688 657.84375 607.019531 C 655.007812 670.234375 652.769531 733.515625 652.175781 796.796875 C 651.054688 903.054688 649.273438 1009.378906 647.230469 1115.574219 C 647.558594 1127.4375 647.429688 1139.898438 652.898438 1150.839844 C 656.394531 1158.089844 662.390625 1164.417969 669.640625 1168.769531 C 670.367188 1169.492188 671.09375 1170.285156 671.882812 1170.945312 C 684.144531 1181.359375 703.261719 1182.613281 720.203125 1184.257812 C 752.238281 1186.832031 784.800781 1185.90625 816.769531 1183.203125 C 842.542969 1181.292969 865.285156 1166.988281 874.449219 1148.335938 C 878.335938 1140.753906 879.855469 1132.644531 880.445312 1124.539062 C 884.074219 1109.3125 883.875 1093.625 884.203125 1078.199219 C 884.402344 1063.300781 884.664062 1048.402344 884.730469 1033.574219 C 884.929688 966.335938 889.808594 899.167969 890.597656 831.929688 C 890.335938 769.308594 886.578125 706.6875 884.136719 644.066406 Z M 884.136719 644 " clip-rule="nonzero"/></clipPath><clipPath id="a90a68b3de"><path d="M 650 327 L 867 327 L 867 457 L 650 457 Z M 650 327 " clip-rule="nonzero"/></clipPath><clipPath id="4cf7d3ae61"><path d="M 884.136719 644 C 882.886719 596.078125 882.492188 548.15625 876.820312 500.367188 C 875.042969 484.414062 873.128906 468.394531 870.296875 452.507812 C 868.382812 443.414062 867.460938 433.988281 863.703125 425.152344 C 862.515625 417.113281 857.308594 409.332031 851.707031 402.675781 C 843.53125 392.917969 834.964844 383.425781 825.933594 374.132812 C 812.289062 360.488281 798.90625 346.449219 782.890625 334.449219 C 761.53125 315.929688 736.878906 340.449219 723.035156 353.371094 C 709.589844 366.488281 695.679688 379.472656 685.398438 394.304688 C 675.640625 407.355469 669.445312 422.054688 669.511719 437.152344 C 669.246094 438.601562 669.050781 439.789062 668.984375 440.378906 C 668.058594 445.785156 667.53125 451.191406 667.136719 456.660156 C 666.414062 463.054688 665.820312 469.515625 665.160156 475.910156 C 660.875 519.351562 659.492188 563.054688 657.84375 607.019531 C 655.007812 670.234375 652.769531 733.515625 652.175781 796.796875 C 651.054688 903.054688 649.273438 1009.378906 647.230469 1115.574219 C 647.558594 1127.4375 647.429688 1139.898438 652.898438 1150.839844 C 656.394531 1158.089844 662.390625 1164.417969 669.640625 1168.769531 C 670.367188 1169.492188 671.09375 1170.285156 671.882812 1170.945312 C 684.144531 1181.359375 703.261719 1182.613281 720.203125 1184.257812 C 752.238281 1186.832031 784.800781 1185.90625 816.769531 1183.203125 C 842.542969 1181.292969 865.285156 1166.988281 874.449219 1148.335938 C 878.335938 1140.753906 879.855469 1132.644531 880.445312 1124.539062 C 884.074219 1109.3125 883.875 1093.625 884.203125 1078.199219 C 884.402344 1063.300781 884.664062 1048.402344 884.730469 1033.574219 C 884.929688 966.335938 889.808594 899.167969 890.597656 831.929688 C 890.335938 769.308594 886.578125 706.6875 884.136719 644.066406 Z M 884.136719 644 " clip-rule="nonzero"/></clipPath><clipPath id="afada7cf92"><path d="M 714 327 L 801 327 L 801 342 L 714 342 Z M 714 327 " clip-rule="nonzero"/></clipPath><clipPath id="bd5e3d6159"><path d="M 884.136719 644 C 882.886719 596.078125 882.492188 548.15625 876.820312 500.367188 C 875.042969 484.414062 873.128906 468.394531 870.296875 452.507812 C 868.382812 443.414062 867.460938 433.988281 863.703125 425.152344 C 862.515625 417.113281 857.308594 409.332031 851.707031 402.675781 C 843.53125 392.917969 834.964844 383.425781 825.933594 374.132812 C 812.289062 360.488281 798.90625 346.449219 782.890625 334.449219 C 761.53125 315.929688 736.878906 340.449219 723.035156 353.371094 C 709.589844 366.488281 695.679688 379.472656 685.398438 394.304688 C 675.640625 407.355469 669.445312 422.054688 669.511719 437.152344 C 669.246094 438.601562 669.050781 439.789062 668.984375 440.378906 C 668.058594 445.785156 667.53125 451.191406 667.136719 456.660156 C 666.414062 463.054688 665.820312 469.515625 665.160156 475.910156 C 660.875 519.351562 659.492188 563.054688 657.84375 607.019531 C 655.007812 670.234375 652.769531 733.515625 652.175781 796.796875 C 651.054688 903.054688 649.273438 1009.378906 647.230469 1115.574219 C 647.558594 1127.4375 647.429688 1139.898438 652.898438 1150.839844 C 656.394531 1158.089844 662.390625 1164.417969 669.640625 1168.769531 C 670.367188 1169.492188 671.09375 1170.285156 671.882812 1170.945312 C 684.144531 1181.359375 703.261719 1182.613281 720.203125 1184.257812 C 752.238281 1186.832031 784.800781 1185.90625 816.769531 1183.203125 C 842.542969 1181.292969 865.285156 1166.988281 874.449219 1148.335938 C 878.335938 1140.753906 879.855469 1132.644531 880.445312 1124.539062 C 884.074219 1109.3125 883.875 1093.625 884.203125 1078.199219 C 884.402344 1063.300781 884.664062 1048.402344 884.730469 1033.574219 C 884.929688 966.335938 889.808594 899.167969 890.597656 831.929688 C 890.335938 769.308594 886.578125 706.6875 884.136719 644.066406 Z M 884.136719 644 " clip-rule="nonzero"/></clipPath><clipPath id="71f3c58c4d"><path d="M 698 327 L 817 327 L 817 345 L 698 345 Z M 698 327 " clip-rule="nonzero"/></clipPath><clipPath id="22b3f4c3c1"><path d="M 884.136719 644 C 882.886719 596.078125 882.492188 548.15625 876.820312 500.367188 C 875.042969 484.414062 873.128906 468.394531 870.296875 452.507812 C 868.382812 443.414062 867.460938 433.988281 863.703125 425.152344 C 862.515625 417.113281 857.308594 409.332031 851.707031 402.675781 C 843.53125 392.917969 834.964844 383.425781 825.933594 374.132812 C 812.289062 360.488281 798.90625 346.449219 782.890625 334.449219 C 761.53125 315.929688 736.878906 340.449219 723.035156 353.371094 C 709.589844 366.488281 695.679688 379.472656 685.398438 394.304688 C 675.640625 407.355469 669.445312 422.054688 669.511719 437.152344 C 669.246094 438.601562 669.050781 439.789062 668.984375 440.378906 C 668.058594 445.785156 667.53125 451.191406 667.136719 456.660156 C 666.414062 463.054688 665.820312 469.515625 665.160156 475.910156 C 660.875 519.351562 659.492188 563.054688 657.84375 607.019531 C 655.007812 670.234375 652.769531 733.515625 652.175781 796.796875 C 651.054688 903.054688 649.273438 1009.378906 647.230469 1115.574219 C 647.558594 1127.4375 647.429688 1139.898438 652.898438 1150.839844 C 656.394531 1158.089844 662.390625 1164.417969 669.640625 1168.769531 C 670.367188 1169.492188 671.09375 1170.285156 671.882812 1170.945312 C 684.144531 1181.359375 703.261719 1182.613281 720.203125 1184.257812 C 752.238281 1186.832031 784.800781 1185.90625 816.769531 1183.203125 C 842.542969 1181.292969 865.285156 1166.988281 874.449219 1148.335938 C 878.335938 1140.753906 879.855469 1132.644531 880.445312 1124.539062 C 884.074219 1109.3125 883.875 1093.625 884.203125 1078.199219 C 884.402344 1063.300781 884.664062 1048.402344 884.730469 1033.574219 C 884.929688 966.335938 889.808594 899.167969 890.597656 831.929688 C 890.335938 769.308594 886.578125 706.6875 884.136719 644.066406 Z M 884.136719 644 " clip-rule="nonzero"/></clipPath><clipPath id="37d34d9e7a"><path d="M 693 331 L 815 331 L 815 351 L 693 351 Z M 693 331 " clip-rule="nonzero"/></clipPath><clipPath id="f60fe51613"><path d="M 884.136719 644 C 882.886719 596.078125 882.492188 548.15625 876.820312 500.367188 C 875.042969 484.414062 873.128906 468.394531 870.296875 452.507812 C 868.382812 443.414062 867.460938 433.988281 863.703125 425.152344 C 862.515625 417.113281 857.308594 409.332031 851.707031 402.675781 C 843.53125 392.917969 834.964844 383.425781 825.933594 374.132812 C 812.289062 360.488281 798.90625 346.449219 782.890625 334.449219 C 761.53125 315.929688 736.878906 340.449219 723.035156 353.371094 C 709.589844 366.488281 695.679688 379.472656 685.398438 394.304688 C 675.640625 407.355469 669.445312 422.054688 669.511719 437.152344 C 669.246094 438.601562 669.050781 439.789062 668.984375 440.378906 C 668.058594 445.785156 667.53125 451.191406 667.136719 456.660156 C 666.414062 463.054688 665.820312 469.515625 665.160156 475.910156 C 660.875 519.351562 659.492188 563.054688 657.84375 607.019531 C 655.007812 670.234375 652.769531 733.515625 652.175781 796.796875 C 651.054688 903.054688 649.273438 1009.378906 647.230469 1115.574219 C 647.558594 1127.4375 647.429688 1139.898438 652.898438 1150.839844 C 656.394531 1158.089844 662.390625 1164.417969 669.640625 1168.769531 C 670.367188 1169.492188 671.09375 1170.285156 671.882812 1170.945312 C 684.144531 1181.359375 703.261719 1182.613281 720.203125 1184.257812 C 752.238281 1186.832031 784.800781 1185.90625 816.769531 1183.203125 C 842.542969 1181.292969 865.285156 1166.988281 874.449219 1148.335938 C 878.335938 1140.753906 879.855469 1132.644531 880.445312 1124.539062 C 884.074219 1109.3125 883.875 1093.625 884.203125 1078.199219 C 884.402344 1063.300781 884.664062 1048.402344 884.730469 1033.574219 C 884.929688 966.335938 889.808594 899.167969 890.597656 831.929688 C 890.335938 769.308594 886.578125 706.6875 884.136719 644.066406 Z M 884.136719 644 " clip-rule="nonzero"/></clipPath><clipPath id="6ea1822bc3"><path d="M 304 314.28125 L 1208 314.28125 L 1208 545 L 304 545 Z M 304 314.28125 " clip-rule="nonzero"/></clipPath><clipPath id="b42e486b98"><path d="M 1204.496094 387.976562 C 1202.519531 362.203125 1187.492188 339.460938 1167.78125 330.296875 C 1159.804688 326.410156 1151.234375 324.894531 1142.734375 324.300781 C 1126.714844 320.675781 1110.167969 320.871094 1093.953125 320.542969 C 1078.265625 320.34375 1062.644531 320.082031 1046.953125 320.015625 C 976.160156 319.816406 905.429688 314.9375 834.699219 314.148438 C 768.714844 314.410156 702.800781 318.167969 636.882812 320.609375 C 586.453125 321.859375 535.960938 322.257812 485.667969 327.925781 C 468.859375 329.769531 451.984375 331.617188 435.304688 334.449219 C 425.683594 336.363281 415.792969 337.285156 406.5 341.042969 C 397.996094 342.230469 389.824219 347.4375 382.835938 353.039062 C 372.550781 361.214844 362.53125 369.78125 352.777344 378.8125 C 338.40625 392.457031 323.640625 405.839844 310.984375 421.859375 C 291.472656 443.214844 317.3125 467.867188 330.890625 481.710938 C 344.667969 495.09375 358.378906 509.066406 373.9375 519.351562 C 387.648438 529.105469 403.136719 535.300781 419.089844 535.234375 C 420.605469 535.5 421.859375 535.695312 422.453125 535.761719 C 428.121094 536.6875 433.855469 537.214844 439.589844 537.609375 C 446.378906 538.332031 453.167969 538.925781 459.894531 539.585938 C 505.640625 543.871094 551.648438 545.253906 597.925781 546.902344 C 664.5 549.738281 731.078125 551.980469 797.71875 552.570312 C 909.648438 553.691406 1021.511719 555.472656 1133.371094 557.515625 C 1145.898438 557.1875 1159.015625 557.316406 1170.550781 551.847656 C 1178.128906 548.351562 1184.855469 542.355469 1189.402344 535.105469 C 1190.191406 534.378906 1190.984375 533.652344 1191.710938 532.863281 C 1202.652344 520.601562 1203.96875 501.484375 1205.683594 484.546875 C 1208.386719 452.507812 1207.398438 419.945312 1204.5625 387.976562 Z M 1204.496094 387.976562 " clip-rule="nonzero"/></clipPath><clipPath id="ffb65aa82f"><path d="M 405 459 L 1196 459 L 1196 557.515625 L 405 557.515625 Z M 405 459 " clip-rule="nonzero"/></clipPath><clipPath id="762e2e6a37"><path d="M 1204.496094 387.976562 C 1202.519531 362.203125 1187.492188 339.460938 1167.78125 330.296875 C 1159.804688 326.410156 1151.234375 324.894531 1142.734375 324.300781 C 1126.714844 320.675781 1110.167969 320.871094 1093.953125 320.542969 C 1078.265625 320.34375 1062.644531 320.082031 1046.953125 320.015625 C 976.160156 319.816406 905.429688 314.9375 834.699219 314.148438 C 768.714844 314.410156 702.800781 318.167969 636.882812 320.609375 C 586.453125 321.859375 535.960938 322.257812 485.667969 327.925781 C 468.859375 329.769531 451.984375 331.617188 435.304688 334.449219 C 425.683594 336.363281 415.792969 337.285156 406.5 341.042969 C 397.996094 342.230469 389.824219 347.4375 382.835938 353.039062 C 372.550781 361.214844 362.53125 369.78125 352.777344 378.8125 C 338.40625 392.457031 323.640625 405.839844 310.984375 421.859375 C 291.472656 443.214844 317.3125 467.867188 330.890625 481.710938 C 344.667969 495.09375 358.378906 509.066406 373.9375 519.351562 C 387.648438 529.105469 403.136719 535.300781 419.089844 535.234375 C 420.605469 535.5 421.859375 535.695312 422.453125 535.761719 C 428.121094 536.6875 433.855469 537.214844 439.589844 537.609375 C 446.378906 538.332031 453.167969 538.925781 459.894531 539.585938 C 505.640625 543.871094 551.648438 545.253906 597.925781 546.902344 C 664.5 549.738281 731.078125 551.980469 797.71875 552.570312 C 909.648438 553.691406 1021.511719 555.472656 1133.371094 557.515625 C 1145.898438 557.1875 1159.015625 557.316406 1170.550781 551.847656 C 1178.128906 548.351562 1184.855469 542.355469 1189.402344 535.105469 C 1190.191406 534.378906 1190.984375 533.652344 1191.710938 532.863281 C 1202.652344 520.601562 1203.96875 501.484375 1205.683594 484.546875 C 1208.386719 452.507812 1207.398438 419.945312 1204.5625 387.976562 Z M 1204.496094 387.976562 " clip-rule="nonzero"/></clipPath><clipPath id="ea60c141c9"><path d="M 385 466 L 1208 466 L 1208 486 L 385 486 Z M 385 466 " clip-rule="nonzero"/></clipPath><clipPath id="e3ef355d62"><path d="M 1204.496094 387.976562 C 1202.519531 362.203125 1187.492188 339.460938 1167.78125 330.296875 C 1159.804688 326.410156 1151.234375 324.894531 1142.734375 324.300781 C 1126.714844 320.675781 1110.167969 320.871094 1093.953125 320.542969 C 1078.265625 320.34375 1062.644531 320.082031 1046.953125 320.015625 C 976.160156 319.816406 905.429688 314.9375 834.699219 314.148438 C 768.714844 314.410156 702.800781 318.167969 636.882812 320.609375 C 586.453125 321.859375 535.960938 322.257812 485.667969 327.925781 C 468.859375 329.769531 451.984375 331.617188 435.304688 334.449219 C 425.683594 336.363281 415.792969 337.285156 406.5 341.042969 C 397.996094 342.230469 389.824219 347.4375 382.835938 353.039062 C 372.550781 361.214844 362.53125 369.78125 352.777344 378.8125 C 338.40625 392.457031 323.640625 405.839844 310.984375 421.859375 C 291.472656 443.214844 317.3125 467.867188 330.890625 481.710938 C 344.667969 495.09375 358.378906 509.066406 373.9375 519.351562 C 387.648438 529.105469 403.136719 535.300781 419.089844 535.234375 C 420.605469 535.5 421.859375 535.695312 422.453125 535.761719 C 428.121094 536.6875 433.855469 537.214844 439.589844 537.609375 C 446.378906 538.332031 453.167969 538.925781 459.894531 539.585938 C 505.640625 543.871094 551.648438 545.253906 597.925781 546.902344 C 664.5 549.738281 731.078125 551.980469 797.71875 552.570312 C 909.648438 553.691406 1021.511719 555.472656 1133.371094 557.515625 C 1145.898438 557.1875 1159.015625 557.316406 1170.550781 551.847656 C 1178.128906 548.351562 1184.855469 542.355469 1189.402344 535.105469 C 1190.191406 534.378906 1190.984375 533.652344 1191.710938 532.863281 C 1202.652344 520.601562 1203.96875 501.484375 1205.683594 484.546875 C 1208.386719 452.507812 1207.398438 419.945312 1204.5625 387.976562 Z M 1204.496094 387.976562 " clip-rule="nonzero"/></clipPath><clipPath id="1d1ee7fcae"><path d="M 370 385 L 1208 385 L 1208 402 L 370 402 Z M 370 385 " clip-rule="nonzero"/></clipPath><clipPath id="3822747552"><path d="M 1204.496094 387.976562 C 1202.519531 362.203125 1187.492188 339.460938 1167.78125 330.296875 C 1159.804688 326.410156 1151.234375 324.894531 1142.734375 324.300781 C 1126.714844 320.675781 1110.167969 320.871094 1093.953125 320.542969 C 1078.265625 320.34375 1062.644531 320.082031 1046.953125 320.015625 C 976.160156 319.816406 905.429688 314.9375 834.699219 314.148438 C 768.714844 314.410156 702.800781 318.167969 636.882812 320.609375 C 586.453125 321.859375 535.960938 322.257812 485.667969 327.925781 C 468.859375 329.769531 451.984375 331.617188 435.304688 334.449219 C 425.683594 336.363281 415.792969 337.285156 406.5 341.042969 C 397.996094 342.230469 389.824219 347.4375 382.835938 353.039062 C 372.550781 361.214844 362.53125 369.78125 352.777344 378.8125 C 338.40625 392.457031 323.640625 405.839844 310.984375 421.859375 C 291.472656 443.214844 317.3125 467.867188 330.890625 481.710938 C 344.667969 495.09375 358.378906 509.066406 373.9375 519.351562 C 387.648438 529.105469 403.136719 535.300781 419.089844 535.234375 C 420.605469 535.5 421.859375 535.695312 422.453125 535.761719 C 428.121094 536.6875 433.855469 537.214844 439.589844 537.609375 C 446.378906 538.332031 453.167969 538.925781 459.894531 539.585938 C 505.640625 543.871094 551.648438 545.253906 597.925781 546.902344 C 664.5 549.738281 731.078125 551.980469 797.71875 552.570312 C 909.648438 553.691406 1021.511719 555.472656 1133.371094 557.515625 C 1145.898438 557.1875 1159.015625 557.316406 1170.550781 551.847656 C 1178.128906 548.351562 1184.855469 542.355469 1189.402344 535.105469 C 1190.191406 534.378906 1190.984375 533.652344 1191.710938 532.863281 C 1202.652344 520.601562 1203.96875 501.484375 1205.683594 484.546875 C 1208.386719 452.507812 1207.398438 419.945312 1204.5625 387.976562 Z M 1204.496094 387.976562 " clip-rule="nonzero"/></clipPath><clipPath id="a3d2cc5829"><path d="M 1121 314.28125 L 1208 314.28125 L 1208 557.515625 L 1121 557.515625 Z M 1121 314.28125 " clip-rule="nonzero"/></clipPath><clipPath id="e78fb17124"><path d="M 1204.496094 387.976562 C 1202.519531 362.203125 1187.492188 339.460938 1167.78125 330.296875 C 1159.804688 326.410156 1151.234375 324.894531 1142.734375 324.300781 C 1126.714844 320.675781 1110.167969 320.871094 1093.953125 320.542969 C 1078.265625 320.34375 1062.644531 320.082031 1046.953125 320.015625 C 976.160156 319.816406 905.429688 314.9375 834.699219 314.148438 C 768.714844 314.410156 702.800781 318.167969 636.882812 320.609375 C 586.453125 321.859375 535.960938 322.257812 485.667969 327.925781 C 468.859375 329.769531 451.984375 331.617188 435.304688 334.449219 C 425.683594 336.363281 415.792969 337.285156 406.5 341.042969 C 397.996094 342.230469 389.824219 347.4375 382.835938 353.039062 C 372.550781 361.214844 362.53125 369.78125 352.777344 378.8125 C 338.40625 392.457031 323.640625 405.839844 310.984375 421.859375 C 291.472656 443.214844 317.3125 467.867188 330.890625 481.710938 C 344.667969 495.09375 358.378906 509.066406 373.9375 519.351562 C 387.648438 529.105469 403.136719 535.300781 419.089844 535.234375 C 420.605469 535.5 421.859375 535.695312 422.453125 535.761719 C 428.121094 536.6875 433.855469 537.214844 439.589844 537.609375 C 446.378906 538.332031 453.167969 538.925781 459.894531 539.585938 C 505.640625 543.871094 551.648438 545.253906 597.925781 546.902344 C 664.5 549.738281 731.078125 551.980469 797.71875 552.570312 C 909.648438 553.691406 1021.511719 555.472656 1133.371094 557.515625 C 1145.898438 557.1875 1159.015625 557.316406 1170.550781 551.847656 C 1178.128906 548.351562 1184.855469 542.355469 1189.402344 535.105469 C 1190.191406 534.378906 1190.984375 533.652344 1191.710938 532.863281 C 1202.652344 520.601562 1203.96875 501.484375 1205.683594 484.546875 C 1208.386719 452.507812 1207.398438 419.945312 1204.5625 387.976562 Z M 1204.496094 387.976562 " clip-rule="nonzero"/></clipPath><clipPath id="eeef5f0941"><path d="M 1117 318 L 1125 318 L 1125 329 L 1117 329 Z M 1117 318 " clip-rule="nonzero"/></clipPath><clipPath id="26ef9ce84a"><path d="M 1204.496094 387.976562 C 1202.519531 362.203125 1187.492188 339.460938 1167.78125 330.296875 C 1159.804688 326.410156 1151.234375 324.894531 1142.734375 324.300781 C 1126.714844 320.675781 1110.167969 320.871094 1093.953125 320.542969 C 1078.265625 320.34375 1062.644531 320.082031 1046.953125 320.015625 C 976.160156 319.816406 905.429688 314.9375 834.699219 314.148438 C 768.714844 314.410156 702.800781 318.167969 636.882812 320.609375 C 586.453125 321.859375 535.960938 322.257812 485.667969 327.925781 C 468.859375 329.769531 451.984375 331.617188 435.304688 334.449219 C 425.683594 336.363281 415.792969 337.285156 406.5 341.042969 C 397.996094 342.230469 389.824219 347.4375 382.835938 353.039062 C 372.550781 361.214844 362.53125 369.78125 352.777344 378.8125 C 338.40625 392.457031 323.640625 405.839844 310.984375 421.859375 C 291.472656 443.214844 317.3125 467.867188 330.890625 481.710938 C 344.667969 495.09375 358.378906 509.066406 373.9375 519.351562 C 387.648438 529.105469 403.136719 535.300781 419.089844 535.234375 C 420.605469 535.5 421.859375 535.695312 422.453125 535.761719 C 428.121094 536.6875 433.855469 537.214844 439.589844 537.609375 C 446.378906 538.332031 453.167969 538.925781 459.894531 539.585938 C 505.640625 543.871094 551.648438 545.253906 597.925781 546.902344 C 664.5 549.738281 731.078125 551.980469 797.71875 552.570312 C 909.648438 553.691406 1021.511719 555.472656 1133.371094 557.515625 C 1145.898438 557.1875 1159.015625 557.316406 1170.550781 551.847656 C 1178.128906 548.351562 1184.855469 542.355469 1189.402344 535.105469 C 1190.191406 534.378906 1190.984375 533.652344 1191.710938 532.863281 C 1202.652344 520.601562 1203.96875 501.484375 1205.683594 484.546875 C 1208.386719 452.507812 1207.398438 419.945312 1204.5625 387.976562 Z M 1204.496094 387.976562 " clip-rule="nonzero"/></clipPath><clipPath id="d084d163e7"><path d="M 1122 318 L 1127 318 L 1127 325 L 1122 325 Z M 1122 318 " clip-rule="nonzero"/></clipPath><clipPath id="403632b13f"><path d="M 1204.496094 387.976562 C 1202.519531 362.203125 1187.492188 339.460938 1167.78125 330.296875 C 1159.804688 326.410156 1151.234375 324.894531 1142.734375 324.300781 C 1126.714844 320.675781 1110.167969 320.871094 1093.953125 320.542969 C 1078.265625 320.34375 1062.644531 320.082031 1046.953125 320.015625 C 976.160156 319.816406 905.429688 314.9375 834.699219 314.148438 C 768.714844 314.410156 702.800781 318.167969 636.882812 320.609375 C 586.453125 321.859375 535.960938 322.257812 485.667969 327.925781 C 468.859375 329.769531 451.984375 331.617188 435.304688 334.449219 C 425.683594 336.363281 415.792969 337.285156 406.5 341.042969 C 397.996094 342.230469 389.824219 347.4375 382.835938 353.039062 C 372.550781 361.214844 362.53125 369.78125 352.777344 378.8125 C 338.40625 392.457031 323.640625 405.839844 310.984375 421.859375 C 291.472656 443.214844 317.3125 467.867188 330.890625 481.710938 C 344.667969 495.09375 358.378906 509.066406 373.9375 519.351562 C 387.648438 529.105469 403.136719 535.300781 419.089844 535.234375 C 420.605469 535.5 421.859375 535.695312 422.453125 535.761719 C 428.121094 536.6875 433.855469 537.214844 439.589844 537.609375 C 446.378906 538.332031 453.167969 538.925781 459.894531 539.585938 C 505.640625 543.871094 551.648438 545.253906 597.925781 546.902344 C 664.5 549.738281 731.078125 551.980469 797.71875 552.570312 C 909.648438 553.691406 1021.511719 555.472656 1133.371094 557.515625 C 1145.898438 557.1875 1159.015625 557.316406 1170.550781 551.847656 C 1178.128906 548.351562 1184.855469 542.355469 1189.402344 535.105469 C 1190.191406 534.378906 1190.984375 533.652344 1191.710938 532.863281 C 1202.652344 520.601562 1203.96875 501.484375 1205.683594 484.546875 C 1208.386719 452.507812 1207.398438 419.945312 1204.5625 387.976562 Z M 1204.496094 387.976562 " clip-rule="nonzero"/></clipPath><clipPath id="0e51a45063"><path d="M 1102 314.28125 L 1149 314.28125 L 1149 557.515625 L 1102 557.515625 Z M 1102 314.28125 " clip-rule="nonzero"/></clipPath><clipPath id="ebe921e816"><path d="M 1204.496094 387.976562 C 1202.519531 362.203125 1187.492188 339.460938 1167.78125 330.296875 C 1159.804688 326.410156 1151.234375 324.894531 1142.734375 324.300781 C 1126.714844 320.675781 1110.167969 320.871094 1093.953125 320.542969 C 1078.265625 320.34375 1062.644531 320.082031 1046.953125 320.015625 C 976.160156 319.816406 905.429688 314.9375 834.699219 314.148438 C 768.714844 314.410156 702.800781 318.167969 636.882812 320.609375 C 586.453125 321.859375 535.960938 322.257812 485.667969 327.925781 C 468.859375 329.769531 451.984375 331.617188 435.304688 334.449219 C 425.683594 336.363281 415.792969 337.285156 406.5 341.042969 C 397.996094 342.230469 389.824219 347.4375 382.835938 353.039062 C 372.550781 361.214844 362.53125 369.78125 352.777344 378.8125 C 338.40625 392.457031 323.640625 405.839844 310.984375 421.859375 C 291.472656 443.214844 317.3125 467.867188 330.890625 481.710938 C 344.667969 495.09375 358.378906 509.066406 373.9375 519.351562 C 387.648438 529.105469 403.136719 535.300781 419.089844 535.234375 C 420.605469 535.5 421.859375 535.695312 422.453125 535.761719 C 428.121094 536.6875 433.855469 537.214844 439.589844 537.609375 C 446.378906 538.332031 453.167969 538.925781 459.894531 539.585938 C 505.640625 543.871094 551.648438 545.253906 597.925781 546.902344 C 664.5 549.738281 731.078125 551.980469 797.71875 552.570312 C 909.648438 553.691406 1021.511719 555.472656 1133.371094 557.515625 C 1145.898438 557.1875 1159.015625 557.316406 1170.550781 551.847656 C 1178.128906 548.351562 1184.855469 542.355469 1189.402344 535.105469 C 1190.191406 534.378906 1190.984375 533.652344 1191.710938 532.863281 C 1202.652344 520.601562 1203.96875 501.484375 1205.683594 484.546875 C 1208.386719 452.507812 1207.398438 419.945312 1204.5625 387.976562 Z M 1204.496094 387.976562 " clip-rule="nonzero"/></clipPath><clipPath id="2484160766"><path d="M 1088 314.28125 L 1141 314.28125 L 1141 557.515625 L 1088 557.515625 Z M 1088 314.28125 " clip-rule="nonzero"/></clipPath><clipPath id="4146cc766b"><path d="M 1204.496094 387.976562 C 1202.519531 362.203125 1187.492188 339.460938 1167.78125 330.296875 C 1159.804688 326.410156 1151.234375 324.894531 1142.734375 324.300781 C 1126.714844 320.675781 1110.167969 320.871094 1093.953125 320.542969 C 1078.265625 320.34375 1062.644531 320.082031 1046.953125 320.015625 C 976.160156 319.816406 905.429688 314.9375 834.699219 314.148438 C 768.714844 314.410156 702.800781 318.167969 636.882812 320.609375 C 586.453125 321.859375 535.960938 322.257812 485.667969 327.925781 C 468.859375 329.769531 451.984375 331.617188 435.304688 334.449219 C 425.683594 336.363281 415.792969 337.285156 406.5 341.042969 C 397.996094 342.230469 389.824219 347.4375 382.835938 353.039062 C 372.550781 361.214844 362.53125 369.78125 352.777344 378.8125 C 338.40625 392.457031 323.640625 405.839844 310.984375 421.859375 C 291.472656 443.214844 317.3125 467.867188 330.890625 481.710938 C 344.667969 495.09375 358.378906 509.066406 373.9375 519.351562 C 387.648438 529.105469 403.136719 535.300781 419.089844 535.234375 C 420.605469 535.5 421.859375 535.695312 422.453125 535.761719 C 428.121094 536.6875 433.855469 537.214844 439.589844 537.609375 C 446.378906 538.332031 453.167969 538.925781 459.894531 539.585938 C 505.640625 543.871094 551.648438 545.253906 597.925781 546.902344 C 664.5 549.738281 731.078125 551.980469 797.71875 552.570312 C 909.648438 553.691406 1021.511719 555.472656 1133.371094 557.515625 C 1145.898438 557.1875 1159.015625 557.316406 1170.550781 551.847656 C 1178.128906 548.351562 1184.855469 542.355469 1189.402344 535.105469 C 1190.191406 534.378906 1190.984375 533.652344 1191.710938 532.863281 C 1202.652344 520.601562 1203.96875 501.484375 1205.683594 484.546875 C 1208.386719 452.507812 1207.398438 419.945312 1204.5625 387.976562 Z M 1204.496094 387.976562 " clip-rule="nonzero"/></clipPath><clipPath id="ae2174e0b3"><path d="M 1120 480 L 1208 480 L 1208 557.515625 L 1120 557.515625 Z M 1120 480 " clip-rule="nonzero"/></clipPath><clipPath id="b654c5ff1f"><path d="M 1204.496094 387.976562 C 1202.519531 362.203125 1187.492188 339.460938 1167.78125 330.296875 C 1159.804688 326.410156 1151.234375 324.894531 1142.734375 324.300781 C 1126.714844 320.675781 1110.167969 320.871094 1093.953125 320.542969 C 1078.265625 320.34375 1062.644531 320.082031 1046.953125 320.015625 C 976.160156 319.816406 905.429688 314.9375 834.699219 314.148438 C 768.714844 314.410156 702.800781 318.167969 636.882812 320.609375 C 586.453125 321.859375 535.960938 322.257812 485.667969 327.925781 C 468.859375 329.769531 451.984375 331.617188 435.304688 334.449219 C 425.683594 336.363281 415.792969 337.285156 406.5 341.042969 C 397.996094 342.230469 389.824219 347.4375 382.835938 353.039062 C 372.550781 361.214844 362.53125 369.78125 352.777344 378.8125 C 338.40625 392.457031 323.640625 405.839844 310.984375 421.859375 C 291.472656 443.214844 317.3125 467.867188 330.890625 481.710938 C 344.667969 495.09375 358.378906 509.066406 373.9375 519.351562 C 387.648438 529.105469 403.136719 535.300781 419.089844 535.234375 C 420.605469 535.5 421.859375 535.695312 422.453125 535.761719 C 428.121094 536.6875 433.855469 537.214844 439.589844 537.609375 C 446.378906 538.332031 453.167969 538.925781 459.894531 539.585938 C 505.640625 543.871094 551.648438 545.253906 597.925781 546.902344 C 664.5 549.738281 731.078125 551.980469 797.71875 552.570312 C 909.648438 553.691406 1021.511719 555.472656 1133.371094 557.515625 C 1145.898438 557.1875 1159.015625 557.316406 1170.550781 551.847656 C 1178.128906 548.351562 1184.855469 542.355469 1189.402344 535.105469 C 1190.191406 534.378906 1190.984375 533.652344 1191.710938 532.863281 C 1202.652344 520.601562 1203.96875 501.484375 1205.683594 484.546875 C 1208.386719 452.507812 1207.398438 419.945312 1204.5625 387.976562 Z M 1204.496094 387.976562 " clip-rule="nonzero"/></clipPath><clipPath id="c48773b5e4"><path d="M 303 338 L 440 338 L 440 555 L 303 555 Z M 303 338 " clip-rule="nonzero"/></clipPath><clipPath id="f0343d7dd9"><path d="M 1204.496094 387.976562 C 1202.519531 362.203125 1187.492188 339.460938 1167.78125 330.296875 C 1159.804688 326.410156 1151.234375 324.894531 1142.734375 324.300781 C 1126.714844 320.675781 1110.167969 320.871094 1093.953125 320.542969 C 1078.265625 320.34375 1062.644531 320.082031 1046.953125 320.015625 C 976.160156 319.816406 905.429688 314.9375 834.699219 314.148438 C 768.714844 314.410156 702.800781 318.167969 636.882812 320.609375 C 586.453125 321.859375 535.960938 322.257812 485.667969 327.925781 C 468.859375 329.769531 451.984375 331.617188 435.304688 334.449219 C 425.683594 336.363281 415.792969 337.285156 406.5 341.042969 C 397.996094 342.230469 389.824219 347.4375 382.835938 353.039062 C 372.550781 361.214844 362.53125 369.78125 352.777344 378.8125 C 338.40625 392.457031 323.640625 405.839844 310.984375 421.859375 C 291.472656 443.214844 317.3125 467.867188 330.890625 481.710938 C 344.667969 495.09375 358.378906 509.066406 373.9375 519.351562 C 387.648438 529.105469 403.136719 535.300781 419.089844 535.234375 C 420.605469 535.5 421.859375 535.695312 422.453125 535.761719 C 428.121094 536.6875 433.855469 537.214844 439.589844 537.609375 C 446.378906 538.332031 453.167969 538.925781 459.894531 539.585938 C 505.640625 543.871094 551.648438 545.253906 597.925781 546.902344 C 664.5 549.738281 731.078125 551.980469 797.71875 552.570312 C 909.648438 553.691406 1021.511719 555.472656 1133.371094 557.515625 C 1145.898438 557.1875 1159.015625 557.316406 1170.550781 551.847656 C 1178.128906 548.351562 1184.855469 542.355469 1189.402344 535.105469 C 1190.191406 534.378906 1190.984375 533.652344 1191.710938 532.863281 C 1202.652344 520.601562 1203.96875 501.484375 1205.683594 484.546875 C 1208.386719 452.507812 1207.398438 419.945312 1204.5625 387.976562 Z M 1204.496094 387.976562 " clip-rule="nonzero"/></clipPath><clipPath id="0368d5e3da"><path d="M 303 404 L 319 404 L 319 491 L 303 491 Z M 303 404 " clip-rule="nonzero"/></clipPath><clipPath id="ca656c0c2a"><path d="M 1204.496094 387.976562 C 1202.519531 362.203125 1187.492188 339.460938 1167.78125 330.296875 C 1159.804688 326.410156 1151.234375 324.894531 1142.734375 324.300781 C 1126.714844 320.675781 1110.167969 320.871094 1093.953125 320.542969 C 1078.265625 320.34375 1062.644531 320.082031 1046.953125 320.015625 C 976.160156 319.816406 905.429688 314.9375 834.699219 314.148438 C 768.714844 314.410156 702.800781 318.167969 636.882812 320.609375 C 586.453125 321.859375 535.960938 322.257812 485.667969 327.925781 C 468.859375 329.769531 451.984375 331.617188 435.304688 334.449219 C 425.683594 336.363281 415.792969 337.285156 406.5 341.042969 C 397.996094 342.230469 389.824219 347.4375 382.835938 353.039062 C 372.550781 361.214844 362.53125 369.78125 352.777344 378.8125 C 338.40625 392.457031 323.640625 405.839844 310.984375 421.859375 C 291.472656 443.214844 317.3125 467.867188 330.890625 481.710938 C 344.667969 495.09375 358.378906 509.066406 373.9375 519.351562 C 387.648438 529.105469 403.136719 535.300781 419.089844 535.234375 C 420.605469 535.5 421.859375 535.695312 422.453125 535.761719 C 428.121094 536.6875 433.855469 537.214844 439.589844 537.609375 C 446.378906 538.332031 453.167969 538.925781 459.894531 539.585938 C 505.640625 543.871094 551.648438 545.253906 597.925781 546.902344 C 664.5 549.738281 731.078125 551.980469 797.71875 552.570312 C 909.648438 553.691406 1021.511719 555.472656 1133.371094 557.515625 C 1145.898438 557.1875 1159.015625 557.316406 1170.550781 551.847656 C 1178.128906 548.351562 1184.855469 542.355469 1189.402344 535.105469 C 1190.191406 534.378906 1190.984375 533.652344 1191.710938 532.863281 C 1202.652344 520.601562 1203.96875 501.484375 1205.683594 484.546875 C 1208.386719 452.507812 1207.398438 419.945312 1204.5625 387.976562 Z M 1204.496094 387.976562 " clip-rule="nonzero"/></clipPath><clipPath id="cbcaee4e25"><path d="M 303 388 L 321 388 L 321 507 L 303 507 Z M 303 388 " clip-rule="nonzero"/></clipPath><clipPath id="399cdfa2e4"><path d="M 1204.496094 387.976562 C 1202.519531 362.203125 1187.492188 339.460938 1167.78125 330.296875 C 1159.804688 326.410156 1151.234375 324.894531 1142.734375 324.300781 C 1126.714844 320.675781 1110.167969 320.871094 1093.953125 320.542969 C 1078.265625 320.34375 1062.644531 320.082031 1046.953125 320.015625 C 976.160156 319.816406 905.429688 314.9375 834.699219 314.148438 C 768.714844 314.410156 702.800781 318.167969 636.882812 320.609375 C 586.453125 321.859375 535.960938 322.257812 485.667969 327.925781 C 468.859375 329.769531 451.984375 331.617188 435.304688 334.449219 C 425.683594 336.363281 415.792969 337.285156 406.5 341.042969 C 397.996094 342.230469 389.824219 347.4375 382.835938 353.039062 C 372.550781 361.214844 362.53125 369.78125 352.777344 378.8125 C 338.40625 392.457031 323.640625 405.839844 310.984375 421.859375 C 291.472656 443.214844 317.3125 467.867188 330.890625 481.710938 C 344.667969 495.09375 358.378906 509.066406 373.9375 519.351562 C 387.648438 529.105469 403.136719 535.300781 419.089844 535.234375 C 420.605469 535.5 421.859375 535.695312 422.453125 535.761719 C 428.121094 536.6875 433.855469 537.214844 439.589844 537.609375 C 446.378906 538.332031 453.167969 538.925781 459.894531 539.585938 C 505.640625 543.871094 551.648438 545.253906 597.925781 546.902344 C 664.5 549.738281 731.078125 551.980469 797.71875 552.570312 C 909.648438 553.691406 1021.511719 555.472656 1133.371094 557.515625 C 1145.898438 557.1875 1159.015625 557.316406 1170.550781 551.847656 C 1178.128906 548.351562 1184.855469 542.355469 1189.402344 535.105469 C 1190.191406 534.378906 1190.984375 533.652344 1191.710938 532.863281 C 1202.652344 520.601562 1203.96875 501.484375 1205.683594 484.546875 C 1208.386719 452.507812 1207.398438 419.945312 1204.5625 387.976562 Z M 1204.496094 387.976562 " clip-rule="nonzero"/></clipPath><clipPath id="d1404ddf1e"><path d="M 307 390 L 328 390 L 328 512 L 307 512 Z M 307 390 " clip-rule="nonzero"/></clipPath><clipPath id="f93fa66654"><path d="M 1204.496094 387.976562 C 1202.519531 362.203125 1187.492188 339.460938 1167.78125 330.296875 C 1159.804688 326.410156 1151.234375 324.894531 1142.734375 324.300781 C 1126.714844 320.675781 1110.167969 320.871094 1093.953125 320.542969 C 1078.265625 320.34375 1062.644531 320.082031 1046.953125 320.015625 C 976.160156 319.816406 905.429688 314.9375 834.699219 314.148438 C 768.714844 314.410156 702.800781 318.167969 636.882812 320.609375 C 586.453125 321.859375 535.960938 322.257812 485.667969 327.925781 C 468.859375 329.769531 451.984375 331.617188 435.304688 334.449219 C 425.683594 336.363281 415.792969 337.285156 406.5 341.042969 C 397.996094 342.230469 389.824219 347.4375 382.835938 353.039062 C 372.550781 361.214844 362.53125 369.78125 352.777344 378.8125 C 338.40625 392.457031 323.640625 405.839844 310.984375 421.859375 C 291.472656 443.214844 317.3125 467.867188 330.890625 481.710938 C 344.667969 495.09375 358.378906 509.066406 373.9375 519.351562 C 387.648438 529.105469 403.136719 535.300781 419.089844 535.234375 C 420.605469 535.5 421.859375 535.695312 422.453125 535.761719 C 428.121094 536.6875 433.855469 537.214844 439.589844 537.609375 C 446.378906 538.332031 453.167969 538.925781 459.894531 539.585938 C 505.640625 543.871094 551.648438 545.253906 597.925781 546.902344 C 664.5 549.738281 731.078125 551.980469 797.71875 552.570312 C 909.648438 553.691406 1021.511719 555.472656 1133.371094 557.515625 C 1145.898438 557.1875 1159.015625 557.316406 1170.550781 551.847656 C 1178.128906 548.351562 1184.855469 542.355469 1189.402344 535.105469 C 1190.191406 534.378906 1190.984375 533.652344 1191.710938 532.863281 C 1202.652344 520.601562 1203.96875 501.484375 1205.683594 484.546875 C 1208.386719 452.507812 1207.398438 419.945312 1204.5625 387.976562 Z M 1204.496094 387.976562 " clip-rule="nonzero"/></clipPath></defs><g clip-path="url(#aa95a9f134)"><g clip-path="url(#00fabc9669)"><path fill="#f7bd4b" d="M 661.535156 1143.324219 C 660.347656 1153.210938 663.445312 1163.628906 671.949219 1170.878906 C 684.210938 1181.292969 703.328125 1182.546875 720.265625 1184.195312 C 752.304688 1186.765625 784.867188 1185.839844 816.835938 1183.140625 C 842.609375 1181.226562 865.351562 1166.988281 874.515625 1148.269531 C 878.402344 1140.6875 879.917969 1132.582031 880.511719 1124.472656 C 884.136719 1109.246094 883.941406 1093.558594 884.269531 1078.132812 C 884.46875 1063.234375 884.730469 1048.335938 884.796875 1033.507812 C 884.996094 966.269531 889.871094 899.101562 890.664062 831.863281 C 890.398438 769.242188 886.644531 706.621094 884.203125 644 C 882.953125 596.078125 882.554688 548.15625 876.886719 500.367188 C 875.109375 484.414062 873.195312 468.394531 870.363281 452.507812 C 868.449219 443.414062 867.527344 433.988281 863.769531 425.152344 C 862.582031 417.113281 857.375 409.332031 851.773438 402.675781 C 843.597656 392.917969 835.03125 383.429688 826 374.132812 C 812.355469 360.488281 798.972656 346.449219 782.953125 334.449219 C 761.597656 315.929688 736.945312 340.449219 723.101562 353.371094 C 709.65625 366.488281 695.746094 379.472656 685.460938 394.304688 C 675.707031 407.355469 669.511719 422.054688 669.578125 437.152344 C 669.3125 438.601562 669.117188 439.789062 669.050781 440.378906 C 663.777344 472.019531 668.652344 503.859375 668.785156 535.566406 C 668.257812 584.738281 663.644531 633.78125 662.324219 682.957031 C 661.207031 733.253906 660.808594 783.613281 660.808594 833.90625 C 661.402344 874.84375 663.050781 917.820312 663.117188 958.425781 C 663.117188 989.339844 661.007812 1020.519531 661.007812 1049.722656 C 660.941406 1067.585938 661.207031 1085.449219 661.140625 1103.3125 C 661.140625 1110.367188 661.207031 1117.417969 661.335938 1124.539062 C 661.535156 1127.964844 661.335938 1132.910156 661.601562 1138.117188 C 661.207031 1139.832031 661.269531 1141.609375 661.601562 1143.324219 Z M 661.535156 1143.324219 " fill-opacity="1" fill-rule="nonzero"/></g></g><g clip-path="url(#a7c7969e0b)"><g clip-path="url(#65ade12ceb)"><path fill="#f7bd4b" d="M 690.605469 1174.570312 C 674.585938 1174.964844 659.625 1164.285156 653.03125 1150.839844 C 647.558594 1139.898438 647.691406 1127.4375 647.363281 1115.574219 C 649.339844 1009.316406 651.1875 903.054688 652.304688 796.796875 C 652.898438 733.515625 655.140625 670.234375 657.976562 607.019531 C 659.625 563.054688 660.941406 519.351562 665.292969 475.910156 C 666.941406 460.816406 667.597656 445.324219 672.277344 430.757812 C 672.871094 429.242188 673.398438 427.59375 674.519531 426.339844 C 675.246094 425.484375 676.367188 424.558594 677.617188 425.023438 C 679.070312 425.484375 679.464844 427.328125 679.199219 428.316406 C 679.199219 428.449219 679.132812 428.582031 679.199219 428.449219 C 674.125 494.628906 672.34375 561.140625 670.105469 627.519531 C 666.148438 721.78125 666.480469 816.109375 666.542969 910.4375 C 666.480469 970.355469 665.554688 1030.277344 664.5 1090.128906 C 664.5 1104.894531 663.777344 1119.726562 666.082031 1134.359375 C 667.664062 1143.71875 675.839844 1151.167969 685.132812 1154.136719 C 691.59375 1155.386719 698.25 1154.792969 704.710938 1154.332031 C 718.15625 1152.882812 731.738281 1154.070312 745.050781 1155.71875 C 735.363281 1161.847656 725.277344 1168.175781 714.136719 1171.734375 C 706.554688 1173.84375 698.582031 1174.371094 690.671875 1174.503906 Z M 690.605469 1174.570312 " fill-opacity="1" fill-rule="nonzero"/></g></g><g clip-path="url(#cc106ac94e)"><g clip-path="url(#982cdc0392)"><path fill="#ffbdc9" d="M 724.683594 1216.492188 C 726.660156 1111.289062 735.757812 1006.28125 737.339844 901.078125 C 737.140625 795.015625 739.515625 689.019531 737.734375 582.960938 C 737.140625 529.367188 732.265625 475.84375 733.847656 422.253906 C 734.109375 418.296875 734.308594 414.34375 734.96875 410.453125 C 735.890625 408.410156 734.703125 405.511719 731.804688 405.113281 C 728.902344 404.71875 727.253906 407.09375 727.253906 409.070312 C 726.066406 417.574219 725.210938 426.078125 724.882812 434.578125 C 722.246094 495.488281 728.046875 556.394531 727.519531 617.304688 C 727.78125 670.628906 726.726562 723.890625 726.859375 777.21875 C 726.859375 829.625 728.640625 882.09375 726.726562 934.5 C 724.75 987.890625 720.398438 1041.21875 719.675781 1094.613281 C 718.882812 1135.21875 722.507812 1175.824219 724.75 1216.363281 Z M 724.683594 1216.492188 " fill-opacity="1" fill-rule="nonzero"/></g></g><g clip-path="url(#23df0d41b4)"><g clip-path="url(#199a12ce4e)"><path fill="#ffbdc9" d="M 811.695312 1232.183594 C 813.472656 1177.140625 817.035156 1122.164062 818.417969 1067.058594 C 821.253906 976.683594 818.878906 886.246094 817.890625 795.875 C 816.441406 673.199219 819.144531 550.527344 812.484375 427.921875 C 812.023438 418.230469 811.761719 408.542969 811.101562 398.851562 C 810.707031 396.347656 811.367188 393.578125 809.320312 391.46875 C 808.136719 390.347656 806.09375 390.480469 804.90625 391.46875 C 802.796875 393.710938 804.3125 396.808594 803.785156 399.445312 C 803.71875 406.367188 803.71875 413.222656 803.785156 420.144531 C 805.828125 501.550781 807.277344 582.894531 806.683594 664.300781 C 806.949219 755.53125 809.980469 846.695312 810.3125 937.859375 C 810.707031 992.636719 809.058594 1047.414062 808.265625 1102.191406 C 808.070312 1145.5 810.839844 1188.808594 811.761719 1232.117188 Z M 811.695312 1232.183594 " fill-opacity="1" fill-rule="nonzero"/></g></g><g clip-path="url(#2520e5dd19)"><g clip-path="url(#841b851a39)"><path fill="#ff88c5" d="M 619.480469 1103.972656 C 623.566406 1107.796875 628.511719 1111.355469 633.453125 1114.585938 C 638.398438 1117.75 643.671875 1120.386719 649.339844 1122.625 C 648.152344 1125.527344 648.550781 1128.953125 648.746094 1131.988281 C 649.207031 1137.523438 650 1143.128906 650.855469 1148.597656 C 653.425781 1163.101562 662.65625 1177.46875 679.660156 1184.65625 C 704.710938 1196.914062 734.96875 1200.605469 764.101562 1198.828125 C 795.609375 1196.652344 827.648438 1189.929688 853.550781 1175.359375 C 868.515625 1166.792969 880.972656 1154.664062 886.117188 1140.621094 C 887.761719 1134.492188 889.871094 1127.042969 885.324219 1121.375 C 884.402344 1120.320312 882.886719 1119.460938 881.238281 1119.066406 C 886.117188 1116.234375 890.597656 1113.070312 894.421875 1109.441406 C 897.453125 1106.410156 894.289062 1103.3125 889.742188 1104.761719 C 886.972656 1106.148438 884.269531 1107.597656 881.371094 1108.851562 C 854.210938 1121.441406 822.4375 1125.066406 791.328125 1126.382812 C 751.3125 1126.714844 710.710938 1124.40625 672.476562 1114.585938 C 655.535156 1109.246094 637.671875 1106.148438 619.609375 1104.039062 Z M 619.480469 1103.972656 " fill-opacity="1" fill-rule="nonzero"/></g></g><g clip-path="url(#9722af37da)"><g clip-path="url(#00cd9ec4db)"><path fill="#ff88c5" d="M 886.644531 1103.707031 C 886.972656 1099.027344 876.820312 1099.554688 876.226562 1103.707031 C 875.898438 1108.386719 886.050781 1107.859375 886.644531 1103.707031 Z M 886.644531 1103.707031 " fill-opacity="1" fill-rule="nonzero"/></g></g><g clip-path="url(#9e7dbd25e7)"><g clip-path="url(#7db5bb5bbe)"><path fill="#ff88c5" d="M 886.179688 1106.9375 C 886.378906 1104.300781 880.710938 1104.632812 880.382812 1106.9375 C 880.183594 1109.574219 885.851562 1109.246094 886.179688 1106.9375 Z M 886.179688 1106.9375 " fill-opacity="1" fill-rule="nonzero"/></g></g><g clip-path="url(#163c27eb29)"><g clip-path="url(#80cfc7d47c)"><path fill="#ff88c5" d="M 790.601562 1129.8125 C 817.957031 1129.21875 845.113281 1123.8125 870.03125 1114.980469 C 878.734375 1111.421875 887.105469 1107.332031 894.488281 1102.257812 C 897.914062 1100.214844 897.652344 1096.589844 892.640625 1096.390625 C 885.589844 1097.117188 879.128906 1100.082031 872.40625 1101.929688 C 865.152344 1104.234375 857.769531 1106.214844 850.324219 1108.058594 C 809.519531 1118.472656 771.222656 1116.628906 729.628906 1112.605469 C 691.199219 1109.640625 656.855469 1101.070312 619.742188 1094.808594 C 605.703125 1092.503906 591.53125 1089.800781 577.820312 1086.703125 C 595.75 1095.46875 612.164062 1106.476562 632.265625 1112.210938 C 666.082031 1121.375 701.679688 1126.648438 737.40625 1128.492188 C 755.070312 1129.746094 772.804688 1130.667969 790.601562 1129.8125 Z M 790.601562 1129.8125 " fill-opacity="1" fill-rule="nonzero"/></g></g><g clip-path="url(#af1643b7d6)"><g clip-path="url(#1e5526efea)"><path fill="#ff88c5" d="M 803.058594 1121.507812 C 832.523438 1119.527344 862.054688 1114.714844 887.894531 1102.984375 C 889.9375 1102.125 891.980469 1101.203125 893.960938 1100.214844 C 895.542969 1099.421875 897.980469 1098.238281 897.847656 1096.523438 C 897.71875 1094.347656 894.027344 1094.019531 892.046875 1094.875 C 875.238281 1099.621094 858.035156 1103.511719 840.5 1106.148438 C 768.714844 1116.296875 693.636719 1108.058594 627.585938 1084.195312 C 614.863281 1080.503906 602.011719 1076.683594 589.488281 1072.59375 C 605.898438 1084.066406 620.996094 1097.644531 641.757812 1104.433594 C 692.84375 1119.792969 748.675781 1124.734375 803.125 1121.441406 Z M 803.058594 1121.507812 " fill-opacity="1" fill-rule="nonzero"/></g></g><g clip-path="url(#0024ecfda8)"><g clip-path="url(#82d373daa9)"><path fill="#ff88c5" d="M 697.261719 1195.53125 C 657.910156 1191.90625 636.023438 1152.355469 642.285156 1117.683594 C 643.011719 1114.386719 648.285156 1099.226562 653.03125 1104.367188 C 654.480469 1106.214844 653.359375 1108.058594 652.4375 1109.839844 C 651.316406 1115.242188 652.109375 1120.847656 653.097656 1126.253906 C 656.195312 1145.632812 664.632812 1166.265625 684.277344 1175.359375 C 691.921875 1178.855469 700.425781 1179.644531 708.074219 1182.808594 C 713.476562 1185.183594 718.554688 1187.753906 724.089844 1189.863281 C 715.390625 1192.105469 706.621094 1196.257812 697.261719 1195.53125 Z M 697.261719 1195.53125 " fill-opacity="1" fill-rule="nonzero"/></g></g><g clip-path="url(#a90a68b3de)"><g clip-path="url(#4cf7d3ae61)"><path fill="#efe1c5" d="M 652.503906 442.027344 C 650.066406 445.257812 647.757812 453.101562 655.273438 452.839844 C 661.796875 452.707031 665.160156 447.632812 668.917969 444.203125 C 672.277344 440.84375 675.441406 437.347656 678.605469 433.855469 C 684.144531 439.851562 688.296875 446.050781 694.296875 451.71875 C 703.984375 461.40625 713.675781 454.75 719.804688 446.578125 C 725.539062 439.65625 731.078125 432.601562 737.734375 426.207031 C 744.128906 433.394531 749.203125 441.238281 755.796875 448.355469 C 759.621094 452.574219 766.078125 458.113281 773.066406 454.355469 C 781.703125 448.753906 787.304688 440.90625 793.566406 433.789062 C 795.875 431.019531 797.851562 427.988281 800.554688 425.484375 C 802.203125 424.097656 804.511719 425.945312 806.027344 426.734375 C 834.371094 448.488281 837.140625 456.859375 861.988281 426.078125 C 862.78125 425.152344 863.769531 424.03125 864.5625 422.847656 C 864.5625 422.847656 864.625 422.847656 864.691406 422.78125 C 866.671875 421.394531 867.066406 418.824219 865.945312 417.046875 C 845.113281 381.714844 815.519531 347.765625 772.804688 326.671875 C 748.480469 314.742188 728.375 326.9375 714.730469 343.085938 C 706.6875 351.589844 699.4375 360.554688 693.042969 369.847656 C 683.089844 383.824219 673.992188 398.257812 665.226562 412.695312 C 663.90625 414.871094 662.589844 417.113281 661.335938 419.351562 C 659.03125 422.976562 660.28125 428.382812 664.105469 431.152344 C 662.0625 433.195312 660.214844 435.105469 658.765625 436.226562 C 656.789062 438.269531 654.21875 439.984375 652.503906 442.160156 Z M 652.503906 442.027344 " fill-opacity="1" fill-rule="nonzero"/></g></g><g clip-path="url(#afada7cf92)"><g clip-path="url(#bd5e3d6159)"><path fill="#9dd5d7" d="M 793.039062 341.109375 C 806.09375 339.722656 800.09375 332.605469 792.117188 329.308594 C 785.328125 326.210938 777.484375 325.355469 769.769531 324.828125 C 755.203125 323.441406 740.4375 323.375 725.804688 324.695312 C 716.046875 324.894531 708.929688 333.527344 718.949219 338.40625 C 721.058594 339.460938 723.167969 339.921875 725.671875 339.988281 C 732 339.988281 738.328125 339.789062 744.65625 339.855469 C 760.742188 340.449219 776.890625 342.425781 793.039062 341.109375 Z M 793.039062 341.109375 " fill-opacity="1" fill-rule="nonzero"/></g></g><g clip-path="url(#71f3c58c4d)"><g clip-path="url(#22b3f4c3c1)"><path fill="#9dd5d7" d="M 805.101562 343.613281 C 807.804688 343.414062 810.773438 343.21875 813.210938 342.359375 C 819.339844 340.316406 816.441406 330.824219 809.519531 332.605469 C 783.019531 327.464844 755.796875 324.695312 728.441406 326.605469 C 716.378906 326.34375 706.292969 326.605469 698.316406 334.714844 C 703.0625 338.273438 709.128906 341.175781 715.851562 341.570312 C 727.386719 341.898438 738.988281 341.832031 750.523438 342.03125 C 768.714844 343.019531 786.84375 344.933594 805.101562 343.613281 Z M 805.101562 343.613281 " fill-opacity="1" fill-rule="nonzero"/></g></g><g clip-path="url(#37d34d9e7a)"><g clip-path="url(#f60fe51613)"><path fill="#9dd5d7" d="M 798.117188 349.875 C 804.046875 349.28125 812.023438 347.632812 813.9375 342.691406 C 814.332031 341.042969 813.078125 338.40625 810.507812 338.539062 C 806.882812 337.945312 803.390625 336.957031 799.894531 336.164062 C 773.59375 330.628906 745.449219 331.089844 718.421875 332.210938 C 710.972656 332.339844 702.601562 331.550781 696.867188 336.164062 C 695.546875 337.152344 694.164062 338.472656 693.503906 339.789062 C 695.480469 343.414062 699.765625 346.117188 704.445312 347.503906 C 710.050781 348.886719 716.179688 348.160156 721.980469 348.292969 C 729.167969 348.160156 736.351562 348.160156 743.535156 348.292969 C 761.730469 348.359375 779.921875 350.667969 798.117188 350.007812 Z M 798.117188 349.875 " fill-opacity="1" fill-rule="nonzero"/></g></g><g clip-path="url(#6ea1822bc3)"><g clip-path="url(#b42e486b98)"><path fill="#f7bd4b" d="M 1162.574219 543.34375 C 1172.988281 544.53125 1183.929688 541.433594 1191.644531 532.929688 C 1202.585938 520.667969 1203.902344 501.550781 1205.683594 484.609375 C 1208.386719 452.574219 1207.398438 420.011719 1204.5625 388.042969 C 1202.585938 362.269531 1187.554688 339.527344 1167.847656 330.363281 C 1159.871094 326.476562 1151.300781 324.957031 1142.796875 324.367188 C 1126.78125 320.738281 1110.234375 320.9375 1094.019531 320.609375 C 1078.332031 320.410156 1062.707031 320.148438 1047.019531 320.082031 C 976.226562 319.882812 905.496094 315.003906 834.765625 314.214844 C 768.78125 314.476562 702.863281 318.234375 636.949219 320.675781 C 586.519531 321.925781 536.027344 322.320312 485.734375 327.992188 C 468.921875 329.769531 452.050781 331.683594 435.371094 334.515625 C 425.746094 336.429688 415.859375 337.351562 406.566406 341.109375 C 398.0625 342.296875 389.890625 347.503906 382.902344 353.105469 C 372.617188 361.28125 362.597656 369.847656 352.84375 378.878906 C 338.472656 392.523438 323.707031 405.90625 311.050781 421.921875 C 291.539062 443.28125 317.378906 467.933594 330.957031 481.777344 C 344.734375 495.222656 358.445312 509.132812 374.003906 519.414062 C 387.714844 529.171875 403.203125 535.367188 419.15625 535.300781 C 420.738281 535.566406 421.925781 535.761719 422.519531 535.828125 C 455.871094 541.101562 489.292969 536.222656 522.777344 536.09375 C 574.523438 536.621094 626.203125 541.234375 678.015625 542.550781 C 731.011719 543.671875 784.007812 544.003906 836.941406 544.070312 C 880.050781 543.476562 925.269531 541.828125 968.050781 541.761719 C 1000.613281 541.761719 1033.441406 543.871094 1064.160156 543.871094 C 1082.945312 543.9375 1101.796875 543.671875 1120.585938 543.738281 C 1128.03125 543.738281 1135.480469 543.671875 1142.929688 543.542969 C 1146.488281 543.34375 1151.761719 543.542969 1157.234375 543.277344 C 1159.015625 543.671875 1160.859375 543.605469 1162.707031 543.277344 Z M 1162.574219 543.34375 " fill-opacity="1" fill-rule="nonzero"/></g></g><g clip-path="url(#ffb65aa82f)"><g clip-path="url(#762e2e6a37)"><path fill="#f7bd4b" d="M 1195.402344 514.273438 C 1195.863281 530.292969 1184.589844 545.253906 1170.417969 551.847656 C 1158.882812 557.316406 1145.765625 557.1875 1133.242188 557.515625 C 1021.378906 555.539062 909.449219 553.691406 797.589844 552.570312 C 730.945312 551.980469 664.371094 549.738281 597.792969 546.902344 C 551.519531 545.253906 505.507812 543.9375 459.761719 539.585938 C 443.808594 537.9375 427.59375 537.277344 412.167969 532.597656 C 410.585938 532.003906 408.871094 531.476562 407.488281 530.359375 C 406.632812 529.632812 405.644531 528.511719 406.105469 527.257812 C 406.632812 525.808594 408.476562 525.414062 409.597656 525.675781 C 409.730469 525.675781 409.925781 525.742188 409.730469 525.675781 C 479.46875 530.753906 549.476562 532.53125 619.347656 534.773438 C 718.621094 538.730469 817.957031 538.398438 917.230469 538.332031 C 980.3125 538.398438 1043.394531 539.324219 1106.476562 540.378906 C 1122.035156 540.378906 1137.65625 541.101562 1153.082031 538.796875 C 1162.96875 537.214844 1170.8125 529.039062 1173.847656 519.746094 C 1175.164062 513.285156 1174.503906 506.628906 1174.042969 500.167969 C 1172.527344 486.71875 1173.78125 473.140625 1175.558594 459.824219 C 1182.019531 469.515625 1188.675781 479.601562 1192.433594 490.742188 C 1194.675781 498.320312 1195.203125 506.296875 1195.335938 514.207031 Z M 1195.402344 514.273438 " fill-opacity="1" fill-rule="nonzero"/></g></g><g clip-path="url(#ea60c141c9)"><g clip-path="url(#e3ef355d62)"><path fill="#ffbdc9" d="M 1239.566406 480.195312 C 1128.824219 478.21875 1018.214844 469.121094 907.472656 467.539062 C 795.808594 467.734375 684.144531 465.363281 572.546875 467.144531 C 516.121094 467.734375 459.761719 472.613281 403.335938 471.03125 C 399.183594 470.769531 395.03125 470.570312 390.878906 469.910156 C 388.769531 468.988281 385.667969 470.175781 385.207031 473.074219 C 384.8125 475.976562 387.25 477.625 389.359375 477.625 C 398.261719 478.808594 407.226562 479.667969 416.191406 479.996094 C 480.328125 482.632812 544.464844 476.832031 608.601562 477.359375 C 664.765625 477.097656 720.859375 478.152344 776.957031 478.019531 C 832.195312 478.019531 887.367188 476.238281 942.605469 478.152344 C 998.835938 480.128906 1054.996094 484.480469 1111.222656 485.203125 C 1154.003906 485.996094 1196.71875 482.371094 1239.433594 480.128906 Z M 1239.566406 480.195312 " fill-opacity="1" fill-rule="nonzero"/></g></g><g clip-path="url(#1d1ee7fcae)"><g clip-path="url(#3822747552)"><path fill="#ffbdc9" d="M 1256.109375 393.117188 C 1198.167969 391.335938 1140.226562 387.777344 1082.285156 386.394531 C 987.101562 383.558594 891.917969 385.933594 796.730469 386.921875 C 667.597656 388.371094 538.402344 385.667969 409.335938 392.328125 C 399.117188 392.789062 388.964844 393.050781 378.75 393.710938 C 376.113281 394.105469 373.210938 393.445312 370.96875 395.492188 C 369.785156 396.675781 369.980469 398.71875 370.96875 399.90625 C 373.34375 402.015625 376.640625 400.5 379.339844 401.027344 C 386.59375 401.09375 393.910156 401.09375 401.160156 401.027344 C 486.851562 398.984375 572.546875 397.535156 658.238281 398.128906 C 754.28125 397.863281 850.257812 394.832031 946.296875 394.5 C 1003.976562 394.105469 1061.652344 395.753906 1119.332031 396.546875 C 1164.945312 396.742188 1210.5625 393.972656 1256.109375 393.050781 Z M 1256.109375 393.117188 " fill-opacity="1" fill-rule="nonzero"/></g></g><g clip-path="url(#a3d2cc5829)"><g clip-path="url(#e78fb17124)"><path fill="#ff88c5" d="M 1121.113281 585.332031 C 1125.132812 581.246094 1128.824219 576.300781 1132.25 571.359375 C 1135.613281 566.414062 1138.382812 561.140625 1140.6875 555.472656 C 1143.722656 556.660156 1147.347656 556.261719 1150.578125 556.066406 C 1156.445312 555.605469 1162.246094 554.8125 1168.109375 553.957031 C 1183.335938 551.386719 1198.566406 542.15625 1206.078125 525.152344 C 1218.933594 500.101562 1222.886719 469.84375 1220.976562 440.710938 C 1218.667969 409.203125 1211.617188 377.164062 1196.324219 351.261719 C 1187.292969 336.296875 1174.503906 323.839844 1159.738281 318.695312 C 1153.28125 317.046875 1145.433594 314.9375 1139.503906 319.488281 C 1138.382812 320.410156 1137.460938 321.925781 1137.0625 323.574219 C 1134.097656 318.695312 1130.734375 314.214844 1126.914062 310.390625 C 1123.75 307.359375 1120.453125 310.523438 1122.035156 315.070312 C 1123.484375 317.839844 1125.066406 320.542969 1126.320312 323.441406 C 1139.570312 350.601562 1143.390625 382.375 1144.777344 413.484375 C 1145.171875 453.5 1142.667969 494.101562 1132.382812 532.335938 C 1126.714844 549.277344 1123.484375 567.140625 1121.242188 585.203125 Z M 1121.113281 585.332031 " fill-opacity="1" fill-rule="nonzero"/></g></g><g clip-path="url(#eeef5f0941)"><g clip-path="url(#26ef9ce84a)"><path fill="#ff88c5" d="M 1120.847656 318.234375 C 1115.902344 317.90625 1116.496094 328.058594 1120.847656 328.648438 C 1125.792969 328.980469 1125.199219 318.828125 1120.847656 318.234375 Z M 1120.847656 318.234375 " fill-opacity="1" fill-rule="nonzero"/></g></g><g clip-path="url(#d084d163e7)"><g clip-path="url(#403632b13f)"><path fill="#ff88c5" d="M 1124.277344 318.628906 C 1121.507812 318.433594 1121.835938 324.101562 1124.277344 324.429688 C 1127.042969 324.628906 1126.714844 318.960938 1124.277344 318.628906 Z M 1124.277344 318.628906 " fill-opacity="1" fill-rule="nonzero"/></g></g><g clip-path="url(#0e51a45063)"><g clip-path="url(#ebe921e816)"><path fill="#ff88c5" d="M 1148.335938 414.210938 C 1147.675781 386.855469 1142.007812 359.699219 1132.714844 334.78125 C 1128.957031 326.078125 1124.671875 317.707031 1119.332031 310.324219 C 1117.222656 306.898438 1113.332031 307.160156 1113.136719 312.171875 C 1113.859375 319.222656 1117.023438 325.683594 1118.9375 332.40625 C 1121.308594 339.660156 1123.484375 347.042969 1125.394531 354.488281 C 1136.339844 395.292969 1134.359375 433.589844 1130.207031 475.183594 C 1127.109375 513.613281 1118.078125 547.957031 1111.421875 585.070312 C 1108.984375 599.109375 1106.148438 613.28125 1102.917969 626.992188 C 1112.148438 609.0625 1123.75 592.648438 1129.746094 572.546875 C 1139.4375 538.730469 1144.90625 503.132812 1146.953125 467.40625 C 1148.269531 449.742188 1149.257812 432.007812 1148.335938 414.210938 Z M 1148.335938 414.210938 " fill-opacity="1" fill-rule="nonzero"/></g></g><g clip-path="url(#2484160766)"><g clip-path="url(#4146cc766b)"><path fill="#ff88c5" d="M 1139.570312 401.753906 C 1137.523438 372.289062 1132.382812 342.757812 1120.121094 316.917969 C 1119.199219 314.875 1118.210938 312.828125 1117.222656 310.851562 C 1116.367188 309.269531 1115.179688 306.832031 1113.398438 306.964844 C 1111.09375 307.09375 1110.761719 310.785156 1111.683594 312.765625 C 1116.628906 329.574219 1120.78125 346.777344 1123.550781 364.3125 C 1134.230469 436.097656 1125.527344 511.175781 1100.414062 577.226562 C 1096.523438 589.949219 1092.503906 602.800781 1088.21875 615.324219 C 1100.28125 598.910156 1114.585938 583.816406 1121.769531 563.054688 C 1137.921875 511.96875 1143.195312 456.132812 1139.699219 401.6875 Z M 1139.570312 401.753906 " fill-opacity="1" fill-rule="nonzero"/></g></g><g clip-path="url(#ae2174e0b3)"><g clip-path="url(#b654c5ff1f)"><path fill="#ff88c5" d="M 1217.484375 507.617188 C 1213.660156 546.96875 1172.066406 568.855469 1135.480469 562.589844 C 1131.988281 561.867188 1116.101562 556.59375 1121.507812 551.847656 C 1123.484375 550.398438 1125.394531 551.515625 1127.242188 552.441406 C 1132.976562 553.5625 1138.84375 552.769531 1144.511719 551.78125 C 1164.882812 548.683594 1186.632812 540.246094 1196.191406 520.601562 C 1199.882812 512.957031 1200.675781 504.453125 1204.035156 496.804688 C 1206.476562 491.402344 1209.242188 486.324219 1211.484375 480.789062 C 1213.859375 489.488281 1218.273438 498.257812 1217.417969 507.617188 Z M 1217.484375 507.617188 " fill-opacity="1" fill-rule="nonzero"/></g></g><g clip-path="url(#c48773b5e4)"><g clip-path="url(#f0343d7dd9)"><path fill="#efe1c5" d="M 424.101562 552.308594 C 427.460938 554.746094 435.765625 557.054688 435.4375 549.539062 C 435.304688 543.015625 429.964844 539.652344 426.339844 535.894531 C 422.78125 532.53125 419.15625 529.367188 415.464844 526.203125 C 421.792969 520.667969 428.320312 516.515625 434.25 510.515625 C 444.402344 500.828125 437.414062 491.136719 428.847656 485.007812 C 421.59375 479.273438 414.144531 473.734375 407.421875 467.078125 C 415.003906 460.683594 423.242188 455.605469 430.757812 449.015625 C 435.175781 445.191406 440.976562 438.734375 437.085938 431.746094 C 431.152344 423.109375 422.914062 417.507812 415.398438 411.246094 C 412.5 408.9375 409.335938 406.960938 406.632812 404.257812 C 405.179688 402.609375 407.160156 400.300781 407.949219 398.785156 C 430.824219 370.441406 439.65625 367.671875 407.226562 342.824219 C 406.234375 342.03125 405.050781 341.042969 403.796875 340.25 C 403.796875 340.25 403.796875 340.1875 403.730469 340.121094 C 402.28125 338.140625 399.578125 337.746094 397.667969 338.867188 C 360.488281 359.699219 324.761719 389.292969 302.546875 432.074219 C 289.957031 456.398438 302.8125 476.503906 319.882812 490.148438 C 328.847656 498.191406 338.273438 505.441406 348.03125 511.835938 C 362.796875 521.789062 377.890625 530.886719 393.117188 539.652344 C 395.425781 540.96875 397.734375 542.289062 400.105469 543.542969 C 403.929688 545.847656 409.597656 544.597656 412.5 540.773438 C 414.671875 542.816406 416.652344 544.660156 417.835938 546.113281 C 420.011719 548.089844 421.792969 550.660156 424.101562 552.375 Z M 424.101562 552.308594 " fill-opacity="1" fill-rule="nonzero"/></g></g><g clip-path="url(#0368d5e3da)"><g clip-path="url(#ca656c0c2a)"><path fill="#9dd5d7" d="M 317.839844 411.773438 C 316.390625 398.71875 308.875 404.71875 305.382812 412.695312 C 302.085938 419.484375 301.230469 427.328125 300.636719 435.042969 C 299.1875 449.609375 299.121094 464.375 300.503906 479.007812 C 300.703125 488.765625 309.800781 495.882812 314.941406 485.863281 C 316.0625 483.753906 316.523438 481.644531 316.589844 479.140625 C 316.589844 472.8125 316.390625 466.484375 316.457031 460.15625 C 317.117188 444.070312 319.226562 427.921875 317.773438 411.773438 Z M 317.839844 411.773438 " fill-opacity="1" fill-rule="nonzero"/></g></g><g clip-path="url(#cbcaee4e25)"><g clip-path="url(#399cdfa2e4)"><path fill="#9dd5d7" d="M 320.476562 399.773438 C 320.28125 397.074219 320.082031 394.105469 319.09375 391.667969 C 316.917969 385.535156 306.964844 388.4375 308.808594 395.359375 C 303.339844 421.859375 300.4375 449.082031 302.546875 476.4375 C 302.285156 488.5 302.546875 498.585938 311.117188 506.5625 C 314.808594 501.816406 317.90625 495.75 318.300781 489.027344 C 318.632812 477.492188 318.566406 465.890625 318.761719 454.355469 C 319.816406 436.160156 321.796875 418.035156 320.410156 399.773438 Z M 320.476562 399.773438 " fill-opacity="1" fill-rule="nonzero"/></g></g><g clip-path="url(#d1404ddf1e)"><g clip-path="url(#f93fa66654)"><path fill="#9dd5d7" d="M 327.070312 406.695312 C 326.476562 400.765625 324.695312 392.789062 319.488281 390.875 C 317.773438 390.480469 315.007812 391.734375 315.070312 394.304688 C 314.414062 397.929688 313.425781 401.421875 312.566406 404.917969 C 306.699219 431.21875 307.226562 459.363281 308.414062 486.390625 C 308.546875 493.839844 307.753906 502.210938 312.566406 507.945312 C 313.621094 509.265625 314.941406 510.648438 316.390625 511.308594 C 320.214844 509.332031 323.046875 505.046875 324.5 500.367188 C 326.015625 494.761719 325.15625 488.632812 325.289062 482.832031 C 325.15625 475.644531 325.089844 468.460938 325.289062 461.277344 C 325.355469 443.082031 327.792969 424.890625 327.070312 406.695312 Z M 327.070312 406.695312 " fill-opacity="1" fill-rule="nonzero"/></g></g></svg>